<svg width="246" height="212" viewBox="0 0 246 212" fill="none" xmlns="http://www.w3.org/2000/svg">
<path d="M6.21354 19.0005C5.95754 19.0005 5.73354 18.9125 5.54154 18.7365C5.36554 18.5605 5.27754 18.3365 5.27754 18.0645V2.46449L2.87754 3.30449C2.70154 3.38449 2.54154 3.42449 2.39754 3.42449C2.12554 3.42449 1.90154 3.33649 1.72554 3.16049C1.54954 2.98449 1.46154 2.76849 1.46154 2.51249C1.46154 2.32049 1.50154 2.14449 1.58154 1.98449C1.67754 1.82449 1.83754 1.70449 2.06154 1.62449L5.75754 0.352488C5.83754 0.320487 5.91754 0.296487 5.99754 0.280488C6.09354 0.248487 6.17354 0.232487 6.23754 0.232487C6.50954 0.232487 6.72554 0.328487 6.88554 0.520487C7.06154 0.696487 7.14954 0.912487 7.14954 1.16849V18.0645C7.14954 18.3365 7.06154 18.5605 6.88554 18.7365C6.70954 18.9125 6.48554 19.0005 6.21354 19.0005ZM24.4271 19.0005C24.1711 19.0005 23.9471 18.9125 23.7551 18.7365C23.5791 18.5445 23.4911 18.3205 23.4911 18.0645V0.256488H25.3631V18.0645C25.3631 18.3205 25.2751 18.5445 25.0991 18.7365C24.9231 18.9125 24.6991 19.0005 24.4271 19.0005ZM17.8031 1.96049C17.5471 1.96049 17.3391 1.88049 17.1791 1.72049C17.0191 1.56049 16.9391 1.36049 16.9391 1.12049C16.9391 0.864487 17.0191 0.656487 17.1791 0.496488C17.3391 0.336488 17.5471 0.256488 17.8031 0.256488H31.0751C31.3311 0.256488 31.5391 0.336488 31.6991 0.496488C31.8591 0.656487 31.9391 0.864487 31.9391 1.12049C31.9391 1.36049 31.8591 1.56049 31.6991 1.72049C31.5391 1.88049 31.3311 1.96049 31.0751 1.96049H17.8031ZM41.1137 19.1205C39.8657 19.1205 38.7377 18.8325 37.7297 18.2565C36.7377 17.6805 35.9457 16.8965 35.3537 15.9045C34.7777 14.8965 34.4817 13.7685 34.4657 12.5205V1.19249C34.4657 0.904487 34.5457 0.680487 34.7057 0.520487C34.8817 0.344488 35.1137 0.256488 35.4017 0.256488C35.6737 0.256488 35.8897 0.344488 36.0497 0.520487C36.2257 0.680487 36.3137 0.904487 36.3137 1.19249V8.24849C36.8417 7.49649 37.5377 6.89649 38.4017 6.44849C39.2817 5.98449 40.2577 5.75249 41.3297 5.75249C42.5617 5.75249 43.6657 6.04849 44.6417 6.64049C45.6177 7.21649 46.3857 8.00849 46.9457 9.01649C47.5217 10.0245 47.8097 11.1605 47.8097 12.4245C47.8097 13.7045 47.5137 14.8485 46.9217 15.8565C46.3457 16.8645 45.5537 17.6645 44.5457 18.2565C43.5377 18.8325 42.3937 19.1205 41.1137 19.1205ZM41.1137 17.4405C42.0417 17.4405 42.8737 17.2245 43.6097 16.7925C44.3457 16.3445 44.9217 15.7445 45.3377 14.9925C45.7697 14.2405 45.9857 13.3845 45.9857 12.4245C45.9857 11.4805 45.7697 10.6325 45.3377 9.88049C44.9217 9.11249 44.3457 8.51249 43.6097 8.08049C42.8737 7.64849 42.0417 7.43249 41.1137 7.43249C40.2017 7.43249 39.3777 7.64849 38.6417 8.08049C37.9057 8.51249 37.3297 9.11249 36.9137 9.88049C36.4977 10.6325 36.2897 11.4805 36.2897 12.4245C36.2897 13.3845 36.4977 14.2405 36.9137 14.9925C37.3297 15.7445 37.9057 16.3445 38.6417 16.7925C39.3777 17.2245 40.2017 17.4405 41.1137 17.4405ZM58.1537 19.0005C57.8977 19.0005 57.6737 18.9125 57.4817 18.7365C57.3057 18.5445 57.2177 18.3205 57.2177 18.0645V1.19249C57.2177 0.920487 57.3057 0.696487 57.4817 0.520487C57.6577 0.344488 57.8817 0.256488 58.1537 0.256488H69.4097C69.6817 0.256488 69.9057 0.344488 70.0817 0.520487C70.2577 0.680487 70.3457 0.896487 70.3457 1.16849C70.3457 1.40849 70.2577 1.61649 70.0817 1.79249C69.9057 1.96849 69.6817 2.05649 69.4097 2.05649H59.0897V8.68049H66.6017C66.8737 8.68049 67.0977 8.76849 67.2737 8.94449C67.4497 9.12049 67.5377 9.33649 67.5377 9.59249C67.5377 9.84849 67.4497 10.0645 67.2737 10.2405C67.0977 10.4165 66.8737 10.5045 66.6017 10.5045H59.0897V18.0645C59.0897 18.3205 59.0017 18.5445 58.8257 18.7365C58.6497 18.9125 58.4257 19.0005 58.1537 19.0005ZM74.2337 10.9125C74.2817 9.92049 74.5377 9.03249 75.0017 8.24849C75.4817 7.46449 76.0977 6.84849 76.8497 6.40049C77.6177 5.95249 78.4657 5.72849 79.3937 5.72849C80.1297 5.72849 80.6977 5.83249 81.0977 6.04049C81.4977 6.24849 81.6497 6.55249 81.5537 6.95249C81.4897 7.19249 81.3777 7.35249 81.2177 7.43249C81.0737 7.51249 80.8897 7.54449 80.6657 7.52849C80.4577 7.51249 80.2177 7.49649 79.9457 7.48049C79.0497 7.40049 78.2497 7.49649 77.5457 7.76849C76.8577 8.02449 76.3057 8.42449 75.8897 8.96849C75.4897 9.51249 75.2897 10.1605 75.2897 10.9125H74.2337ZM74.3777 19.0005C74.0897 19.0005 73.8657 18.9205 73.7057 18.7605C73.5457 18.6005 73.4657 18.3765 73.4657 18.0885V6.78449C73.4657 6.49649 73.5457 6.27249 73.7057 6.11249C73.8657 5.95249 74.0897 5.87249 74.3777 5.87249C74.6657 5.87249 74.8897 5.95249 75.0497 6.11249C75.2097 6.27249 75.2897 6.49649 75.2897 6.78449V18.0885C75.2897 18.3765 75.2097 18.6005 75.0497 18.7605C74.8897 18.9205 74.6657 19.0005 74.3777 19.0005ZM89.4489 19.1205C88.1529 19.1205 87.0009 18.8405 85.9929 18.2805C85.0009 17.7045 84.2169 16.9125 83.6409 15.9045C83.0809 14.8965 82.8009 13.7445 82.8009 12.4485C82.8009 11.1365 83.0649 9.98449 83.5929 8.99249C84.1369 7.98449 84.8809 7.19249 85.8249 6.61649C86.7689 6.04049 87.8569 5.75249 89.0889 5.75249C90.3049 5.75249 91.3609 6.03249 92.2569 6.59249C93.1689 7.13649 93.8729 7.89649 94.3689 8.87249C94.8649 9.84849 95.1129 10.9605 95.1129 12.2085C95.1129 12.4645 95.0329 12.6725 94.8729 12.8325C94.7129 12.9765 94.5049 13.0485 94.2489 13.0485H84.0489V11.5125H94.4409L93.4089 12.2565C93.4249 11.3285 93.2569 10.4965 92.9049 9.76049C92.5529 9.02449 92.0489 8.44849 91.3929 8.03249C90.7529 7.61649 89.9849 7.40849 89.0889 7.40849C88.1769 7.40849 87.3769 7.62449 86.6889 8.05649C86.0009 8.48849 85.4649 9.08849 85.0809 9.85649C84.7129 10.6085 84.5289 11.4725 84.5289 12.4485C84.5289 13.4245 84.7369 14.2885 85.1529 15.0405C85.5849 15.7925 86.1689 16.3845 86.9049 16.8165C87.6409 17.2485 88.4889 17.4645 89.4489 17.4645C90.0249 17.4645 90.6009 17.3685 91.1769 17.1765C91.7689 16.9685 92.2409 16.7125 92.5929 16.4085C92.7689 16.2645 92.9689 16.1925 93.1929 16.1925C93.4169 16.1765 93.6089 16.2325 93.7689 16.3605C93.9769 16.5525 94.0809 16.7605 94.0809 16.9845C94.0969 17.2085 94.0089 17.4005 93.8169 17.5605C93.2889 18.0085 92.6169 18.3845 91.8009 18.6885C90.9849 18.9765 90.2009 19.1205 89.4489 19.1205ZM103.722 19.1205C102.426 19.1205 101.274 18.8405 100.266 18.2805C99.2744 17.7045 98.4904 16.9125 97.9144 15.9045C97.3544 14.8965 97.0744 13.7445 97.0744 12.4485C97.0744 11.1365 97.3384 9.98449 97.8664 8.99249C98.4104 7.98449 99.1544 7.19249 100.098 6.61649C101.042 6.04049 102.13 5.75249 103.362 5.75249C104.578 5.75249 105.634 6.03249 106.53 6.59249C107.442 7.13649 108.146 7.89649 108.642 8.87249C109.138 9.84849 109.386 10.9605 109.386 12.2085C109.386 12.4645 109.306 12.6725 109.146 12.8325C108.986 12.9765 108.778 13.0485 108.522 13.0485H98.3224V11.5125H108.714L107.682 12.2565C107.698 11.3285 107.53 10.4965 107.178 9.76049C106.826 9.02449 106.322 8.44849 105.666 8.03249C105.026 7.61649 104.258 7.40849 103.362 7.40849C102.45 7.40849 101.65 7.62449 100.962 8.05649C100.274 8.48849 99.7384 9.08849 99.3544 9.85649C98.9864 10.6085 98.8024 11.4725 98.8024 12.4485C98.8024 13.4245 99.0104 14.2885 99.4264 15.0405C99.8584 15.7925 100.442 16.3845 101.178 16.8165C101.914 17.2485 102.762 17.4645 103.722 17.4645C104.298 17.4645 104.874 17.3685 105.45 17.1765C106.042 16.9685 106.514 16.7125 106.866 16.4085C107.042 16.2645 107.242 16.1925 107.466 16.1925C107.69 16.1765 107.882 16.2325 108.042 16.3605C108.25 16.5525 108.354 16.7605 108.354 16.9845C108.37 17.2085 108.282 17.4005 108.09 17.5605C107.562 18.0085 106.89 18.3845 106.074 18.6885C105.258 18.9765 104.474 19.1205 103.722 19.1205ZM124.128 19.1205C123.184 19.1205 122.248 18.9605 121.32 18.6405C120.392 18.3205 119.64 17.8405 119.064 17.2005C118.888 17.0085 118.816 16.7925 118.848 16.5525C118.88 16.3125 119 16.1045 119.208 15.9285C119.432 15.7685 119.664 15.7045 119.904 15.7365C120.144 15.7685 120.344 15.8725 120.504 16.0485C120.888 16.4965 121.392 16.8405 122.016 17.0805C122.656 17.3205 123.36 17.4405 124.128 17.4405C125.312 17.4405 126.168 17.2405 126.696 16.8405C127.224 16.4245 127.496 15.9285 127.512 15.3525C127.512 14.7765 127.24 14.3045 126.696 13.9365C126.152 13.5525 125.256 13.2565 124.008 13.0485C122.392 12.7925 121.208 12.3445 120.456 11.7045C119.704 11.0645 119.328 10.3045 119.328 9.42449C119.328 8.60849 119.544 7.92849 119.976 7.38449C120.408 6.84049 120.984 6.43249 121.704 6.16049C122.424 5.88849 123.216 5.75249 124.08 5.75249C125.152 5.75249 126.072 5.93649 126.84 6.30449C127.624 6.67249 128.256 7.16849 128.736 7.79249C128.896 8.00049 128.96 8.21649 128.928 8.44049C128.896 8.66449 128.768 8.84849 128.544 8.99249C128.352 9.10449 128.128 9.14449 127.872 9.11249C127.632 9.06449 127.424 8.94449 127.248 8.75249C126.848 8.28849 126.384 7.95249 125.856 7.74449C125.328 7.52049 124.72 7.40849 124.032 7.40849C123.152 7.40849 122.448 7.59249 121.92 7.96049C121.392 8.31249 121.128 8.76049 121.128 9.30449C121.128 9.67249 121.224 9.99249 121.416 10.2645C121.624 10.5365 121.968 10.7765 122.448 10.9845C122.944 11.1925 123.632 11.3685 124.512 11.5125C125.712 11.7045 126.656 11.9925 127.344 12.3765C128.048 12.7445 128.544 13.1845 128.832 13.6965C129.136 14.1925 129.288 14.7365 129.288 15.3285C129.288 16.0805 129.064 16.7445 128.616 17.3205C128.184 17.8805 127.576 18.3205 126.792 18.6405C126.024 18.9605 125.136 19.1205 124.128 19.1205ZM133.417 24.6165C133.129 24.6165 132.897 24.5285 132.721 24.3525C132.561 24.1925 132.481 23.9685 132.481 23.6805V12.3525C132.497 11.1045 132.793 9.98449 133.369 8.99249C133.961 7.98449 134.753 7.19249 135.745 6.61649C136.753 6.04049 137.881 5.75249 139.129 5.75249C140.409 5.75249 141.553 6.04849 142.561 6.64049C143.569 7.21649 144.361 8.00849 144.937 9.01649C145.529 10.0245 145.825 11.1685 145.825 12.4485C145.825 13.7125 145.537 14.8485 144.961 15.8565C144.401 16.8645 143.633 17.6645 142.657 18.2565C141.681 18.8325 140.577 19.1205 139.345 19.1205C138.273 19.1205 137.297 18.8965 136.417 18.4485C135.553 17.9845 134.857 17.3765 134.329 16.6245V23.6805C134.329 23.9685 134.241 24.1925 134.065 24.3525C133.905 24.5285 133.689 24.6165 133.417 24.6165ZM139.129 17.4405C140.057 17.4405 140.889 17.2245 141.625 16.7925C142.361 16.3605 142.937 15.7685 143.353 15.0165C143.785 14.2485 144.001 13.3925 144.001 12.4485C144.001 11.4885 143.785 10.6325 143.353 9.88049C142.937 9.12849 142.361 8.53649 141.625 8.10449C140.889 7.65649 140.057 7.43249 139.129 7.43249C138.217 7.43249 137.393 7.65649 136.657 8.10449C135.921 8.53649 135.345 9.12849 134.929 9.88049C134.513 10.6325 134.305 11.4885 134.305 12.4485C134.305 13.3925 134.513 14.2485 134.929 15.0165C135.345 15.7685 135.921 16.3605 136.657 16.7925C137.393 17.2245 138.217 17.4405 139.129 17.4405ZM155.234 19.1205C154.002 19.1205 152.898 18.8325 151.922 18.2565C150.946 17.6645 150.17 16.8645 149.594 15.8565C149.034 14.8485 148.754 13.7125 148.754 12.4485C148.754 11.1685 149.042 10.0245 149.618 9.01649C150.21 8.00849 151.01 7.21649 152.018 6.64049C153.026 6.04849 154.162 5.75249 155.426 5.75249C156.69 5.75249 157.818 6.04849 158.81 6.64049C159.818 7.21649 160.61 8.00849 161.186 9.01649C161.778 10.0245 162.082 11.1685 162.098 12.4485L161.354 13.0245C161.354 14.1765 161.082 15.2165 160.538 16.1445C160.01 17.0565 159.282 17.7845 158.354 18.3285C157.442 18.8565 156.402 19.1205 155.234 19.1205ZM155.426 17.4405C156.354 17.4405 157.178 17.2245 157.898 16.7925C158.634 16.3605 159.21 15.7685 159.626 15.0165C160.058 14.2485 160.274 13.3925 160.274 12.4485C160.274 11.4885 160.058 10.6325 159.626 9.88049C159.21 9.12849 158.634 8.53649 157.898 8.10449C157.178 7.65649 156.354 7.43249 155.426 7.43249C154.514 7.43249 153.69 7.65649 152.954 8.10449C152.218 8.53649 151.634 9.12849 151.202 9.88049C150.77 10.6325 150.554 11.4885 150.554 12.4485C150.554 13.3925 150.77 14.2485 151.202 15.0165C151.634 15.7685 152.218 16.3605 152.954 16.7925C153.69 17.2245 154.514 17.4405 155.426 17.4405ZM161.162 19.0005C160.89 19.0005 160.666 18.9205 160.49 18.7605C160.314 18.5845 160.226 18.3605 160.226 18.0885V13.9845L160.682 12.0885L162.098 12.4485V18.0885C162.098 18.3605 162.01 18.5845 161.834 18.7605C161.658 18.9205 161.434 19.0005 161.162 19.0005ZM171.548 19.1205C170.284 19.1205 169.156 18.8325 168.164 18.2565C167.188 17.6645 166.412 16.8645 165.836 15.8565C165.276 14.8485 164.996 13.7125 164.996 12.4485C164.996 11.1685 165.268 10.0245 165.812 9.01649C166.356 8.00849 167.1 7.21649 168.044 6.64049C168.988 6.04849 170.076 5.75249 171.308 5.75249C172.284 5.75249 173.18 5.94449 173.996 6.32849C174.828 6.71249 175.556 7.28849 176.18 8.05649C176.356 8.24849 176.42 8.45649 176.372 8.68049C176.324 8.88849 176.188 9.07249 175.964 9.23249C175.788 9.36049 175.588 9.40849 175.364 9.37649C175.156 9.32849 174.972 9.20849 174.812 9.01649C173.884 7.96049 172.716 7.43249 171.308 7.43249C170.412 7.43249 169.62 7.64849 168.932 8.08049C168.26 8.51249 167.732 9.10449 167.348 9.85649C166.98 10.6085 166.796 11.4725 166.796 12.4485C166.796 13.4085 166.996 14.2645 167.396 15.0165C167.796 15.7685 168.356 16.3605 169.076 16.7925C169.796 17.2245 170.62 17.4405 171.548 17.4405C172.172 17.4405 172.74 17.3605 173.252 17.2005C173.78 17.0245 174.244 16.7605 174.644 16.4085C174.836 16.2485 175.036 16.1605 175.244 16.1445C175.452 16.1285 175.644 16.1925 175.82 16.3365C176.012 16.5125 176.116 16.7125 176.132 16.9365C176.164 17.1605 176.092 17.3525 175.916 17.5125C174.748 18.5845 173.292 19.1205 171.548 19.1205ZM185.918 19.1205C184.622 19.1205 183.47 18.8405 182.462 18.2805C181.47 17.7045 180.686 16.9125 180.11 15.9045C179.55 14.8965 179.27 13.7445 179.27 12.4485C179.27 11.1365 179.534 9.98449 180.062 8.99249C180.606 7.98449 181.35 7.19249 182.294 6.61649C183.238 6.04049 184.326 5.75249 185.558 5.75249C186.774 5.75249 187.83 6.03249 188.726 6.59249C189.638 7.13649 190.342 7.89649 190.838 8.87249C191.334 9.84849 191.582 10.9605 191.582 12.2085C191.582 12.4645 191.502 12.6725 191.342 12.8325C191.182 12.9765 190.974 13.0485 190.718 13.0485H180.518V11.5125H190.91L189.878 12.2565C189.894 11.3285 189.726 10.4965 189.374 9.76049C189.022 9.02449 188.518 8.44849 187.862 8.03249C187.222 7.61649 186.454 7.40849 185.558 7.40849C184.646 7.40849 183.846 7.62449 183.158 8.05649C182.47 8.48849 181.934 9.08849 181.55 9.85649C181.182 10.6085 180.998 11.4725 180.998 12.4485C180.998 13.4245 181.206 14.2885 181.622 15.0405C182.054 15.7925 182.638 16.3845 183.374 16.8165C184.11 17.2485 184.958 17.4645 185.918 17.4645C186.494 17.4645 187.07 17.3685 187.646 17.1765C188.238 16.9685 188.71 16.7125 189.062 16.4085C189.238 16.2645 189.438 16.1925 189.662 16.1925C189.886 16.1765 190.078 16.2325 190.238 16.3605C190.446 16.5525 190.55 16.7605 190.55 16.9845C190.566 17.2085 190.478 17.4005 190.286 17.5605C189.758 18.0085 189.086 18.3845 188.27 18.6885C187.454 18.9765 186.67 19.1205 185.918 19.1205ZM11.2295 83.0005C10.9895 83.0005 10.7815 82.9125 10.6055 82.7365C10.4295 82.5605 10.3415 82.3365 10.3415 82.0645V78.5125H1.74954C1.49354 78.5125 1.27754 78.4325 1.10154 78.2725C0.941539 78.0965 0.845539 77.8965 0.813539 77.6725C0.797539 77.4485 0.861539 77.2405 1.00554 77.0485L10.5095 64.6165C10.5895 64.5045 10.6855 64.4165 10.7975 64.3525C10.9255 64.2725 11.0855 64.2325 11.2775 64.2325C11.5335 64.2325 11.7415 64.3285 11.9015 64.5205C12.0775 64.6965 12.1655 64.9205 12.1655 65.1925V76.8325H14.0615C14.3175 76.8325 14.5335 76.8965 14.7095 77.0245C14.8855 77.1525 14.9735 77.3765 14.9735 77.6965C14.9735 77.9045 14.8855 78.0965 14.7095 78.2725C14.5335 78.4325 14.3175 78.5125 14.0615 78.5125H12.1655V82.0645C12.1655 82.3365 12.0775 82.5605 11.9015 82.7365C11.7255 82.9125 11.5015 83.0005 11.2295 83.0005ZM2.75754 77.5525L2.42154 76.8325H10.3415V66.5365L10.8215 67.0405L2.75754 77.5525ZM30.8959 83.0005C30.6399 83.0005 30.4159 82.9125 30.2239 82.7365C30.0479 82.5445 29.9599 82.3205 29.9599 82.0645V64.2565H31.8319V82.0645C31.8319 82.3205 31.7439 82.5445 31.5679 82.7365C31.3919 82.9125 31.1679 83.0005 30.8959 83.0005ZM24.2719 65.9605C24.0159 65.9605 23.8079 65.8805 23.6479 65.7205C23.4879 65.5605 23.4079 65.3605 23.4079 65.1205C23.4079 64.8645 23.4879 64.6565 23.6479 64.4965C23.8079 64.3365 24.0159 64.2565 24.2719 64.2565H37.5439C37.7999 64.2565 38.0079 64.3365 38.1679 64.4965C38.3279 64.6565 38.4079 64.8645 38.4079 65.1205C38.4079 65.3605 38.3279 65.5605 38.1679 65.7205C38.0079 65.8805 37.7999 65.9605 37.5439 65.9605H24.2719ZM47.5824 83.1205C46.3344 83.1205 45.2064 82.8325 44.1984 82.2565C43.2064 81.6805 42.4144 80.8965 41.8224 79.9045C41.2464 78.8965 40.9504 77.7685 40.9344 76.5205V65.1925C40.9344 64.9045 41.0144 64.6805 41.1744 64.5205C41.3504 64.3445 41.5824 64.2565 41.8704 64.2565C42.1424 64.2565 42.3584 64.3445 42.5184 64.5205C42.6944 64.6805 42.7824 64.9045 42.7824 65.1925V72.2485C43.3104 71.4965 44.0064 70.8965 44.8704 70.4485C45.7504 69.9845 46.7264 69.7525 47.7984 69.7525C49.0304 69.7525 50.1344 70.0485 51.1104 70.6405C52.0864 71.2165 52.8544 72.0085 53.4144 73.0165C53.9904 74.0245 54.2784 75.1605 54.2784 76.4245C54.2784 77.7045 53.9824 78.8485 53.3904 79.8565C52.8144 80.8645 52.0224 81.6645 51.0144 82.2565C50.0064 82.8325 48.8624 83.1205 47.5824 83.1205ZM47.5824 81.4405C48.5104 81.4405 49.3424 81.2245 50.0784 80.7925C50.8144 80.3445 51.3904 79.7445 51.8064 78.9925C52.2384 78.2405 52.4544 77.3845 52.4544 76.4245C52.4544 75.4805 52.2384 74.6325 51.8064 73.8805C51.3904 73.1125 50.8144 72.5125 50.0784 72.0805C49.3424 71.6485 48.5104 71.4325 47.5824 71.4325C46.6704 71.4325 45.8464 71.6485 45.1104 72.0805C44.3744 72.5125 43.7984 73.1125 43.3824 73.8805C42.9664 74.6325 42.7584 75.4805 42.7584 76.4245C42.7584 77.3845 42.9664 78.2405 43.3824 78.9925C43.7984 79.7445 44.3744 80.3445 45.1104 80.7925C45.8464 81.2245 46.6704 81.4405 47.5824 81.4405ZM66.1104 83.0005C65.8544 83.0005 65.6304 82.9125 65.4384 82.7365C65.2624 82.5445 65.1744 82.3205 65.1744 82.0645V65.1925C65.1744 64.9205 65.2624 64.6965 65.4384 64.5205C65.6304 64.3445 65.8544 64.2565 66.1104 64.2565C66.4944 64.2565 66.7744 64.4165 66.9504 64.7365L75.0384 80.8165H74.2224L82.1664 64.7365C82.3584 64.4165 82.6384 64.2565 83.0064 64.2565C83.2624 64.2565 83.4784 64.3445 83.6544 64.5205C83.8304 64.6965 83.9184 64.9205 83.9184 65.1925V82.0645C83.9184 82.3205 83.8304 82.5445 83.6544 82.7365C83.4784 82.9125 83.2624 83.0005 83.0064 83.0005C82.7344 83.0005 82.5024 82.9125 82.3104 82.7365C82.1344 82.5445 82.0464 82.3205 82.0464 82.0645V67.6165L82.4544 67.6405L75.3744 82.1125C75.1984 82.4165 74.9264 82.5685 74.5584 82.5685C74.1584 82.5685 73.8704 82.3765 73.6944 81.9925L66.5664 67.7365L67.0464 67.6165V82.0645C67.0464 82.3205 66.9504 82.5445 66.7584 82.7365C66.5824 82.9125 66.3664 83.0005 66.1104 83.0005ZM94.4651 83.1205C93.1851 83.1205 92.0411 82.8325 91.0331 82.2565C90.0251 81.6805 89.2331 80.8885 88.6571 79.8805C88.0811 78.8725 87.7931 77.7285 87.7931 76.4485C87.7931 75.1525 88.0811 74.0005 88.6571 72.9925C89.2331 71.9845 90.0251 71.1925 91.0331 70.6165C92.0411 70.0405 93.1851 69.7525 94.4651 69.7525C95.7451 69.7525 96.8811 70.0405 97.8731 70.6165C98.8811 71.1925 99.6731 71.9845 100.249 72.9925C100.825 74.0005 101.121 75.1525 101.137 76.4485C101.137 77.7285 100.841 78.8725 100.249 79.8805C99.6731 80.8885 98.8811 81.6805 97.8731 82.2565C96.8811 82.8325 95.7451 83.1205 94.4651 83.1205ZM94.4651 81.4405C95.3931 81.4405 96.2251 81.2245 96.9611 80.7925C97.6971 80.3605 98.2731 79.7685 98.6891 79.0165C99.1051 78.2645 99.3131 77.4085 99.3131 76.4485C99.3131 75.4885 99.1051 74.6325 98.6891 73.8805C98.2731 73.1125 97.6971 72.5125 96.9611 72.0805C96.2251 71.6485 95.3931 71.4325 94.4651 71.4325C93.5371 71.4325 92.7051 71.6485 91.9691 72.0805C91.2331 72.5125 90.6491 73.1125 90.2171 73.8805C89.8011 74.6325 89.5931 75.4885 89.5931 76.4485C89.5931 77.4085 89.8011 78.2645 90.2171 79.0165C90.6491 79.7685 91.2331 80.3605 91.9691 80.7925C92.7051 81.2245 93.5371 81.4405 94.4651 81.4405ZM115.987 83.0005C115.715 83.0005 115.491 82.9125 115.315 82.7365C115.139 82.5605 115.051 82.3445 115.051 82.0885V75.8485C115.051 74.8565 114.859 74.0405 114.475 73.4005C114.107 72.7605 113.595 72.2805 112.939 71.9605C112.299 71.6405 111.571 71.4805 110.755 71.4805C109.971 71.4805 109.259 71.6325 108.619 71.9365C107.995 72.2405 107.499 72.6565 107.131 73.1845C106.763 73.7125 106.579 74.3125 106.579 74.9845H105.259C105.291 73.9765 105.563 73.0805 106.075 72.2965C106.587 71.4965 107.267 70.8725 108.115 70.4245C108.963 69.9605 109.907 69.7285 110.947 69.7285C112.083 69.7285 113.099 69.9685 113.995 70.4485C114.891 70.9125 115.595 71.6005 116.107 72.5125C116.635 73.4245 116.899 74.5365 116.899 75.8485V82.0885C116.899 82.3445 116.811 82.5605 116.635 82.7365C116.459 82.9125 116.243 83.0005 115.987 83.0005ZM105.667 83.0005C105.379 83.0005 105.147 82.9205 104.971 82.7605C104.811 82.5845 104.731 82.3605 104.731 82.0885V70.8085C104.731 70.5205 104.811 70.2965 104.971 70.1365C105.147 69.9605 105.379 69.8725 105.667 69.8725C105.939 69.8725 106.155 69.9605 106.315 70.1365C106.491 70.2965 106.579 70.5205 106.579 70.8085V82.0885C106.579 82.3605 106.491 82.5845 106.315 82.7605C106.155 82.9205 105.939 83.0005 105.667 83.0005ZM126.109 83.0005C125.261 83.0005 124.501 82.8005 123.829 82.4005C123.173 82.0005 122.653 81.4565 122.269 80.7685C121.885 80.0645 121.693 79.2645 121.693 78.3685V66.6325C121.693 66.3605 121.773 66.1365 121.933 65.9605C122.109 65.7845 122.333 65.6965 122.605 65.6965C122.877 65.6965 123.101 65.7845 123.277 65.9605C123.453 66.1365 123.541 66.3605 123.541 66.6325V78.3685C123.541 79.1845 123.781 79.8565 124.261 80.3845C124.741 80.8965 125.357 81.1525 126.109 81.1525H126.757C127.013 81.1525 127.221 81.2405 127.381 81.4165C127.541 81.5925 127.621 81.8165 127.621 82.0885C127.621 82.3605 127.525 82.5845 127.333 82.7605C127.141 82.9205 126.901 83.0005 126.613 83.0005H126.109ZM120.133 71.9605C119.893 71.9605 119.693 71.8885 119.533 71.7445C119.373 71.5845 119.293 71.3925 119.293 71.1685C119.293 70.9285 119.373 70.7365 119.533 70.5925C119.693 70.4325 119.893 70.3525 120.133 70.3525H126.253C126.493 70.3525 126.693 70.4325 126.853 70.5925C127.013 70.7365 127.093 70.9285 127.093 71.1685C127.093 71.3925 127.013 71.5845 126.853 71.7445C126.693 71.8885 126.493 71.9605 126.253 71.9605H120.133ZM131.566 77.6485C131.278 77.6485 131.046 77.5605 130.87 77.3845C130.71 77.2085 130.63 76.9845 130.63 76.7125V65.1925C130.63 64.9045 130.71 64.6805 130.87 64.5205C131.046 64.3445 131.278 64.2565 131.566 64.2565C131.838 64.2565 132.054 64.3445 132.214 64.5205C132.39 64.6805 132.478 64.9045 132.478 65.1925V76.7125C132.478 76.9845 132.39 77.2085 132.214 77.3845C132.054 77.5605 131.838 77.6485 131.566 77.6485ZM141.886 83.0005C141.614 83.0005 141.39 82.9125 141.214 82.7365C141.038 82.5605 140.95 82.3445 140.95 82.0885V75.8485C140.95 74.8565 140.758 74.0405 140.374 73.4005C140.006 72.7605 139.494 72.2805 138.838 71.9605C138.198 71.6405 137.47 71.4805 136.654 71.4805C135.87 71.4805 135.158 71.6325 134.518 71.9365C133.894 72.2405 133.398 72.6565 133.03 73.1845C132.662 73.7125 132.478 74.3125 132.478 74.9845H131.158C131.19 73.9765 131.462 73.0805 131.974 72.2965C132.486 71.4965 133.166 70.8725 134.014 70.4245C134.862 69.9605 135.806 69.7285 136.846 69.7285C137.982 69.7285 138.998 69.9685 139.894 70.4485C140.79 70.9125 141.494 71.6005 142.006 72.5125C142.534 73.4245 142.798 74.5365 142.798 75.8485V82.0885C142.798 82.3445 142.71 82.5605 142.534 82.7365C142.358 82.9125 142.142 83.0005 141.886 83.0005ZM131.566 83.0005C131.278 83.0005 131.046 82.9205 130.87 82.7605C130.71 82.5845 130.63 82.3605 130.63 82.0885V70.8085C130.63 70.5205 130.71 70.2965 130.87 70.1365C131.046 69.9605 131.278 69.8725 131.566 69.8725C131.838 69.8725 132.054 69.9605 132.214 70.1365C132.39 70.2965 132.478 70.5205 132.478 70.8085V82.0885C132.478 82.3605 132.39 82.5845 132.214 82.7605C132.054 82.9205 131.838 83.0005 131.566 83.0005ZM149.704 83.0005C149.064 83.0005 148.488 82.8245 147.976 82.4725C147.48 82.1205 147.088 81.6325 146.8 81.0085C146.528 80.3845 146.392 79.6645 146.392 78.8485V65.1685C146.392 64.8965 146.472 64.6805 146.632 64.5205C146.808 64.3445 147.032 64.2565 147.304 64.2565C147.576 64.2565 147.792 64.3445 147.952 64.5205C148.128 64.6805 148.216 64.8965 148.216 65.1685V78.8485C148.216 79.5365 148.352 80.0965 148.624 80.5285C148.912 80.9605 149.272 81.1765 149.704 81.1765H150.304C150.544 81.1765 150.736 81.2645 150.88 81.4405C151.024 81.6005 151.096 81.8165 151.096 82.0885C151.096 82.3605 150.992 82.5845 150.784 82.7605C150.592 82.9205 150.336 83.0005 150.016 83.0005H149.704ZM155.901 88.7125C155.773 88.7125 155.629 88.6805 155.469 88.6165C154.925 88.3765 154.773 87.9925 155.013 87.4645L162.765 70.3765C163.005 69.8645 163.389 69.7205 163.917 69.9445C164.461 70.1685 164.613 70.5445 164.373 71.0725L156.597 88.1605C156.437 88.5285 156.205 88.7125 155.901 88.7125ZM158.565 82.5925C158.325 82.7045 158.101 82.7285 157.893 82.6645C157.685 82.5845 157.517 82.4245 157.389 82.1845L152.037 71.0965C151.925 70.8565 151.909 70.6325 151.989 70.4245C152.069 70.2165 152.229 70.0565 152.469 69.9445C152.709 69.8325 152.933 69.8165 153.141 69.8965C153.349 69.9605 153.509 70.1125 153.621 70.3525L158.877 81.4405C159.005 81.6805 159.045 81.9045 158.997 82.1125C158.949 82.3205 158.805 82.4805 158.565 82.5925ZM178.409 83.1205C177.465 83.1205 176.529 82.9605 175.601 82.6405C174.673 82.3205 173.921 81.8405 173.345 81.2005C173.169 81.0085 173.097 80.7925 173.129 80.5525C173.161 80.3125 173.281 80.1045 173.489 79.9285C173.713 79.7685 173.945 79.7045 174.185 79.7365C174.425 79.7685 174.625 79.8725 174.785 80.0485C175.169 80.4965 175.673 80.8405 176.297 81.0805C176.937 81.3205 177.641 81.4405 178.409 81.4405C179.593 81.4405 180.449 81.2405 180.977 80.8405C181.505 80.4245 181.777 79.9285 181.793 79.3525C181.793 78.7765 181.521 78.3045 180.977 77.9365C180.433 77.5525 179.537 77.2565 178.289 77.0485C176.673 76.7925 175.489 76.3445 174.737 75.7045C173.985 75.0645 173.609 74.3045 173.609 73.4245C173.609 72.6085 173.825 71.9285 174.257 71.3845C174.689 70.8405 175.265 70.4325 175.985 70.1605C176.705 69.8885 177.497 69.7525 178.361 69.7525C179.433 69.7525 180.353 69.9365 181.121 70.3045C181.905 70.6725 182.537 71.1685 183.017 71.7925C183.177 72.0005 183.241 72.2165 183.209 72.4405C183.177 72.6645 183.049 72.8485 182.825 72.9925C182.633 73.1045 182.409 73.1445 182.153 73.1125C181.913 73.0645 181.705 72.9445 181.529 72.7525C181.129 72.2885 180.665 71.9525 180.137 71.7445C179.609 71.5205 179.001 71.4085 178.313 71.4085C177.433 71.4085 176.729 71.5925 176.201 71.9605C175.673 72.3125 175.409 72.7605 175.409 73.3045C175.409 73.6725 175.505 73.9925 175.697 74.2645C175.905 74.5365 176.249 74.7765 176.729 74.9845C177.225 75.1925 177.913 75.3685 178.793 75.5125C179.993 75.7045 180.937 75.9925 181.625 76.3765C182.329 76.7445 182.825 77.1845 183.113 77.6965C183.417 78.1925 183.569 78.7365 183.569 79.3285C183.569 80.0805 183.345 80.7445 182.897 81.3205C182.465 81.8805 181.857 82.3205 181.073 82.6405C180.305 82.9605 179.417 83.1205 178.409 83.1205ZM187.699 88.6165C187.411 88.6165 187.179 88.5285 187.003 88.3525C186.843 88.1925 186.763 87.9685 186.763 87.6805V76.3525C186.779 75.1045 187.075 73.9845 187.651 72.9925C188.243 71.9845 189.035 71.1925 190.027 70.6165C191.035 70.0405 192.163 69.7525 193.411 69.7525C194.691 69.7525 195.835 70.0485 196.843 70.6405C197.851 71.2165 198.643 72.0085 199.219 73.0165C199.811 74.0245 200.107 75.1685 200.107 76.4485C200.107 77.7125 199.819 78.8485 199.243 79.8565C198.683 80.8645 197.915 81.6645 196.939 82.2565C195.963 82.8325 194.859 83.1205 193.627 83.1205C192.555 83.1205 191.579 82.8965 190.699 82.4485C189.835 81.9845 189.139 81.3765 188.611 80.6245V87.6805C188.611 87.9685 188.523 88.1925 188.347 88.3525C188.187 88.5285 187.971 88.6165 187.699 88.6165ZM193.411 81.4405C194.339 81.4405 195.171 81.2245 195.907 80.7925C196.643 80.3605 197.219 79.7685 197.635 79.0165C198.067 78.2485 198.283 77.3925 198.283 76.4485C198.283 75.4885 198.067 74.6325 197.635 73.8805C197.219 73.1285 196.643 72.5365 195.907 72.1045C195.171 71.6565 194.339 71.4325 193.411 71.4325C192.499 71.4325 191.675 71.6565 190.939 72.1045C190.203 72.5365 189.627 73.1285 189.211 73.8805C188.795 74.6325 188.587 75.4885 188.587 76.4485C188.587 77.3925 188.795 78.2485 189.211 79.0165C189.627 79.7685 190.203 80.3605 190.939 80.7925C191.675 81.2245 192.499 81.4405 193.411 81.4405ZM209.515 83.1205C208.283 83.1205 207.179 82.8325 206.203 82.2565C205.227 81.6645 204.451 80.8645 203.875 79.8565C203.315 78.8485 203.035 77.7125 203.035 76.4485C203.035 75.1685 203.323 74.0245 203.899 73.0165C204.491 72.0085 205.291 71.2165 206.299 70.6405C207.307 70.0485 208.443 69.7525 209.707 69.7525C210.971 69.7525 212.099 70.0485 213.091 70.6405C214.099 71.2165 214.891 72.0085 215.467 73.0165C216.059 74.0245 216.363 75.1685 216.379 76.4485L215.635 77.0245C215.635 78.1765 215.363 79.2165 214.819 80.1445C214.291 81.0565 213.563 81.7845 212.635 82.3285C211.723 82.8565 210.683 83.1205 209.515 83.1205ZM209.707 81.4405C210.635 81.4405 211.459 81.2245 212.179 80.7925C212.915 80.3605 213.491 79.7685 213.907 79.0165C214.339 78.2485 214.555 77.3925 214.555 76.4485C214.555 75.4885 214.339 74.6325 213.907 73.8805C213.491 73.1285 212.915 72.5365 212.179 72.1045C211.459 71.6565 210.635 71.4325 209.707 71.4325C208.795 71.4325 207.971 71.6565 207.235 72.1045C206.499 72.5365 205.915 73.1285 205.483 73.8805C205.051 74.6325 204.835 75.4885 204.835 76.4485C204.835 77.3925 205.051 78.2485 205.483 79.0165C205.915 79.7685 206.499 80.3605 207.235 80.7925C207.971 81.2245 208.795 81.4405 209.707 81.4405ZM215.443 83.0005C215.171 83.0005 214.947 82.9205 214.771 82.7605C214.595 82.5845 214.507 82.3605 214.507 82.0885V77.9845L214.963 76.0885L216.379 76.4485V82.0885C216.379 82.3605 216.291 82.5845 216.115 82.7605C215.939 82.9205 215.715 83.0005 215.443 83.0005ZM225.829 83.1205C224.565 83.1205 223.437 82.8325 222.445 82.2565C221.469 81.6645 220.693 80.8645 220.117 79.8565C219.557 78.8485 219.277 77.7125 219.277 76.4485C219.277 75.1685 219.549 74.0245 220.093 73.0165C220.637 72.0085 221.381 71.2165 222.325 70.6405C223.269 70.0485 224.357 69.7525 225.589 69.7525C226.565 69.7525 227.461 69.9445 228.277 70.3285C229.109 70.7125 229.837 71.2885 230.461 72.0565C230.637 72.2485 230.701 72.4565 230.653 72.6805C230.605 72.8885 230.469 73.0725 230.245 73.2325C230.069 73.3605 229.869 73.4085 229.645 73.3765C229.437 73.3285 229.253 73.2085 229.093 73.0165C228.165 71.9605 226.997 71.4325 225.589 71.4325C224.693 71.4325 223.901 71.6485 223.213 72.0805C222.541 72.5125 222.013 73.1045 221.629 73.8565C221.261 74.6085 221.077 75.4725 221.077 76.4485C221.077 77.4085 221.277 78.2645 221.677 79.0165C222.077 79.7685 222.637 80.3605 223.357 80.7925C224.077 81.2245 224.901 81.4405 225.829 81.4405C226.453 81.4405 227.021 81.3605 227.533 81.2005C228.061 81.0245 228.525 80.7605 228.925 80.4085C229.117 80.2485 229.317 80.1605 229.525 80.1445C229.733 80.1285 229.925 80.1925 230.101 80.3365C230.293 80.5125 230.397 80.7125 230.413 80.9365C230.445 81.1605 230.373 81.3525 230.197 81.5125C229.029 82.5845 227.573 83.1205 225.829 83.1205ZM240.199 83.1205C238.903 83.1205 237.751 82.8405 236.743 82.2805C235.751 81.7045 234.967 80.9125 234.391 79.9045C233.831 78.8965 233.551 77.7445 233.551 76.4485C233.551 75.1365 233.815 73.9845 234.343 72.9925C234.887 71.9845 235.631 71.1925 236.575 70.6165C237.519 70.0405 238.607 69.7525 239.839 69.7525C241.055 69.7525 242.111 70.0325 243.007 70.5925C243.919 71.1365 244.623 71.8965 245.119 72.8725C245.615 73.8485 245.863 74.9605 245.863 76.2085C245.863 76.4645 245.783 76.6725 245.623 76.8325C245.463 76.9765 245.255 77.0485 244.999 77.0485H234.799V75.5125H245.191L244.159 76.2565C244.175 75.3285 244.007 74.4965 243.655 73.7605C243.303 73.0245 242.799 72.4485 242.143 72.0325C241.503 71.6165 240.735 71.4085 239.839 71.4085C238.927 71.4085 238.127 71.6245 237.439 72.0565C236.751 72.4885 236.215 73.0885 235.831 73.8565C235.463 74.6085 235.279 75.4725 235.279 76.4485C235.279 77.4245 235.487 78.2885 235.903 79.0405C236.335 79.7925 236.919 80.3845 237.655 80.8165C238.391 81.2485 239.239 81.4645 240.199 81.4645C240.775 81.4645 241.351 81.3685 241.927 81.1765C242.519 80.9685 242.991 80.7125 243.343 80.4085C243.519 80.2645 243.719 80.1925 243.943 80.1925C244.167 80.1765 244.359 80.2325 244.519 80.3605C244.727 80.5525 244.831 80.7605 244.831 80.9845C244.847 81.2085 244.759 81.4005 244.567 81.5605C244.039 82.0085 243.367 82.3845 242.551 82.6885C241.735 82.9765 240.951 83.1205 240.199 83.1205ZM6.21354 147C5.95754 147 5.73354 146.912 5.54154 146.736C5.36554 146.56 5.27754 146.336 5.27754 146.064V130.464L2.87754 131.304C2.70154 131.384 2.54154 131.424 2.39754 131.424C2.12554 131.424 1.90154 131.336 1.72554 131.16C1.54954 130.984 1.46154 130.768 1.46154 130.512C1.46154 130.32 1.50154 130.144 1.58154 129.984C1.67754 129.824 1.83754 129.704 2.06154 129.624L5.75754 128.352C5.83754 128.32 5.91754 128.296 5.99754 128.28C6.09354 128.248 6.17354 128.232 6.23754 128.232C6.50954 128.232 6.72554 128.328 6.88554 128.52C7.06154 128.696 7.14954 128.912 7.14954 129.168V146.064C7.14954 146.336 7.06154 146.56 6.88554 146.736C6.70954 146.912 6.48554 147 6.21354 147ZM16.3879 147C15.2039 147 14.1879 146.624 13.3399 145.872C12.4919 145.12 11.8439 144.048 11.3959 142.656C10.9639 141.248 10.7479 139.56 10.7479 137.592C10.7479 135.656 10.9639 133.984 11.3959 132.576C11.8439 131.168 12.4919 130.088 13.3399 129.336C14.1879 128.584 15.2039 128.208 16.3879 128.208C17.6039 128.208 18.6279 128.592 19.4599 129.36C20.3079 130.112 20.9479 131.192 21.3799 132.6C21.8279 134.008 22.0519 135.672 22.0519 137.592C22.0519 139.544 21.8279 141.224 21.3799 142.632C20.9479 144.024 20.3079 145.104 19.4599 145.872C18.6279 146.624 17.6039 147 16.3879 147ZM16.3879 145.128C17.2519 145.128 17.9639 144.808 18.5239 144.168C19.0839 143.512 19.4999 142.616 19.7719 141.48C20.0439 140.344 20.1799 139.048 20.1799 137.592C20.1799 136.152 20.0359 134.872 19.7479 133.752C19.4759 132.616 19.0599 131.72 18.4999 131.064C17.9399 130.408 17.2359 130.08 16.3879 130.08C15.5399 130.08 14.8359 130.408 14.2759 131.064C13.7319 131.704 13.3159 132.592 13.0279 133.728C12.7559 134.864 12.6199 136.152 12.6199 137.592C12.6199 139.064 12.7559 140.368 13.0279 141.504C13.3159 142.624 13.7319 143.512 14.2759 144.168C14.8359 144.808 15.5399 145.128 16.3879 145.128ZM30.0988 147C28.9148 147 27.8988 146.624 27.0508 145.872C26.2028 145.12 25.5548 144.048 25.1068 142.656C24.6748 141.248 24.4588 139.56 24.4588 137.592C24.4588 135.656 24.6748 133.984 25.1068 132.576C25.5548 131.168 26.2028 130.088 27.0508 129.336C27.8988 128.584 28.9148 128.208 30.0988 128.208C31.3148 128.208 32.3388 128.592 33.1708 129.36C34.0188 130.112 34.6588 131.192 35.0908 132.6C35.5388 134.008 35.7628 135.672 35.7628 137.592C35.7628 139.544 35.5388 141.224 35.0908 142.632C34.6588 144.024 34.0188 145.104 33.1708 145.872C32.3388 146.624 31.3148 147 30.0988 147ZM30.0988 145.128C30.9628 145.128 31.6748 144.808 32.2348 144.168C32.7948 143.512 33.2108 142.616 33.4828 141.48C33.7548 140.344 33.8908 139.048 33.8908 137.592C33.8908 136.152 33.7468 134.872 33.4588 133.752C33.1868 132.616 32.7708 131.72 32.2108 131.064C31.6508 130.408 30.9468 130.08 30.0988 130.08C29.2508 130.08 28.5468 130.408 27.9868 131.064C27.4428 131.704 27.0268 132.592 26.7388 133.728C26.4668 134.864 26.3308 136.152 26.3308 137.592C26.3308 139.064 26.4668 140.368 26.7388 141.504C27.0268 142.624 27.4428 143.512 27.9868 144.168C28.5468 144.808 29.2508 145.128 30.0988 145.128ZM47.337 147C47.081 147 46.857 146.912 46.665 146.736C46.489 146.544 46.401 146.32 46.401 146.064V129.192C46.401 128.92 46.489 128.696 46.665 128.52C46.857 128.344 47.081 128.256 47.337 128.256C47.721 128.256 48.001 128.416 48.177 128.736L56.265 144.816H55.449L63.393 128.736C63.585 128.416 63.865 128.256 64.233 128.256C64.489 128.256 64.705 128.344 64.881 128.52C65.057 128.696 65.145 128.92 65.145 129.192V146.064C65.145 146.32 65.057 146.544 64.881 146.736C64.705 146.912 64.489 147 64.233 147C63.961 147 63.729 146.912 63.537 146.736C63.361 146.544 63.273 146.32 63.273 146.064V131.616L63.681 131.64L56.601 146.112C56.425 146.416 56.153 146.568 55.785 146.568C55.385 146.568 55.097 146.376 54.921 145.992L47.793 131.736L48.273 131.616V146.064C48.273 146.32 48.177 146.544 47.985 146.736C47.809 146.912 47.593 147 47.337 147ZM76.3637 147.12C75.1157 147.12 73.9877 146.832 72.9797 146.256C71.9877 145.68 71.1957 144.896 70.6037 143.904C70.0277 142.896 69.7317 141.768 69.7157 140.52V129.192C69.7157 128.904 69.7957 128.68 69.9557 128.52C70.1317 128.344 70.3637 128.256 70.6517 128.256C70.9237 128.256 71.1397 128.344 71.2997 128.52C71.4757 128.68 71.5637 128.904 71.5637 129.192V136.248C72.0917 135.496 72.7877 134.896 73.6517 134.448C74.5317 133.984 75.5077 133.752 76.5797 133.752C77.8117 133.752 78.9157 134.048 79.8917 134.64C80.8677 135.216 81.6357 136.008 82.1957 137.016C82.7717 138.024 83.0597 139.16 83.0597 140.424C83.0597 141.704 82.7637 142.848 82.1717 143.856C81.5957 144.864 80.8037 145.664 79.7957 146.256C78.7877 146.832 77.6437 147.12 76.3637 147.12ZM76.3637 145.44C77.2917 145.44 78.1237 145.224 78.8597 144.792C79.5957 144.344 80.1717 143.744 80.5877 142.992C81.0197 142.24 81.2357 141.384 81.2357 140.424C81.2357 139.48 81.0197 138.632 80.5877 137.88C80.1717 137.112 79.5957 136.512 78.8597 136.08C78.1237 135.648 77.2917 135.432 76.3637 135.432C75.4517 135.432 74.6277 135.648 73.8917 136.08C73.1557 136.512 72.5797 137.112 72.1637 137.88C71.7477 138.632 71.5397 139.48 71.5397 140.424C71.5397 141.384 71.7477 142.24 72.1637 142.992C72.5797 143.744 73.1557 144.344 73.8917 144.792C74.6277 145.224 75.4517 145.44 76.3637 145.44ZM88.0044 147C87.7164 147 87.4844 146.92 87.3084 146.76C87.1484 146.584 87.0684 146.352 87.0684 146.064V134.808C87.0684 134.52 87.1484 134.296 87.3084 134.136C87.4844 133.96 87.7164 133.872 88.0044 133.872C88.2764 133.872 88.4924 133.96 88.6524 134.136C88.8284 134.296 88.9164 134.52 88.9164 134.808V146.064C88.9164 146.352 88.8284 146.584 88.6524 146.76C88.4924 146.92 88.2764 147 88.0044 147ZM87.9804 131.376C87.6284 131.376 87.3244 131.248 87.0684 130.992C86.8124 130.736 86.6844 130.424 86.6844 130.056C86.6844 129.656 86.8124 129.344 87.0684 129.12C87.3404 128.88 87.6524 128.76 88.0044 128.76C88.3404 128.76 88.6364 128.88 88.8924 129.12C89.1644 129.344 89.3004 129.656 89.3004 130.056C89.3004 130.424 89.1724 130.736 88.9164 130.992C88.6604 131.248 88.3484 131.376 87.9804 131.376ZM98.7579 147C97.9099 147 97.1499 146.8 96.4779 146.4C95.8219 146 95.3019 145.456 94.9179 144.768C94.5339 144.064 94.3419 143.264 94.3419 142.368V130.632C94.3419 130.36 94.4219 130.136 94.5819 129.96C94.7579 129.784 94.9819 129.696 95.2539 129.696C95.5259 129.696 95.7499 129.784 95.9259 129.96C96.1019 130.136 96.1899 130.36 96.1899 130.632V142.368C96.1899 143.184 96.4299 143.856 96.9099 144.384C97.3899 144.896 98.0059 145.152 98.7579 145.152H99.4059C99.6619 145.152 99.8699 145.24 100.03 145.416C100.19 145.592 100.27 145.816 100.27 146.088C100.27 146.36 100.174 146.584 99.9819 146.76C99.7899 146.92 99.5499 147 99.2619 147H98.7579ZM92.7819 135.96C92.5419 135.96 92.3419 135.888 92.1819 135.744C92.0219 135.584 91.9419 135.392 91.9419 135.168C91.9419 134.928 92.0219 134.736 92.1819 134.592C92.3419 134.432 92.5419 134.352 92.7819 134.352H98.9019C99.1419 134.352 99.3419 134.432 99.5019 134.592C99.6619 134.736 99.7419 134.928 99.7419 135.168C99.7419 135.392 99.6619 135.584 99.5019 135.744C99.3419 135.888 99.1419 135.96 98.9019 135.96H92.7819ZM116.309 147.24C115.285 147.24 114.333 147.096 113.453 146.808C112.589 146.504 111.837 146.08 111.197 145.536C110.557 144.992 110.069 144.36 109.733 143.64C109.605 143.384 109.597 143.152 109.709 142.944C109.837 142.72 110.045 142.568 110.333 142.488C110.557 142.424 110.773 142.448 110.981 142.56C111.205 142.672 111.373 142.84 111.485 143.064C111.725 143.528 112.077 143.944 112.541 144.312C113.005 144.68 113.557 144.968 114.197 145.176C114.837 145.368 115.541 145.464 116.309 145.464C117.157 145.464 117.909 145.328 118.565 145.056C119.221 144.768 119.733 144.36 120.101 143.832C120.485 143.288 120.677 142.632 120.677 141.864C120.677 140.888 120.317 140.048 119.597 139.344C118.877 138.64 117.749 138.192 116.213 138C114.341 137.776 112.877 137.2 111.821 136.272C110.765 135.328 110.237 134.176 110.237 132.816C110.237 131.84 110.493 130.992 111.005 130.272C111.533 129.552 112.253 129 113.165 128.616C114.077 128.216 115.125 128.016 116.309 128.016C117.189 128.016 117.989 128.16 118.709 128.448C119.429 128.72 120.053 129.088 120.581 129.552C121.125 130 121.565 130.496 121.901 131.04C122.061 131.296 122.109 131.544 122.045 131.784C121.997 132.024 121.861 132.208 121.637 132.336C121.397 132.448 121.149 132.464 120.893 132.384C120.653 132.304 120.469 132.152 120.341 131.928C120.101 131.56 119.797 131.216 119.429 130.896C119.077 130.56 118.645 130.296 118.133 130.104C117.621 129.912 117.005 129.808 116.285 129.792C115.021 129.792 114.005 130.064 113.237 130.608C112.469 131.136 112.085 131.912 112.085 132.936C112.085 133.48 112.229 133.984 112.517 134.448C112.805 134.896 113.277 135.288 113.933 135.624C114.605 135.944 115.501 136.184 116.621 136.344C118.621 136.632 120.101 137.248 121.061 138.192C122.037 139.12 122.525 140.336 122.525 141.84C122.525 142.704 122.365 143.472 122.045 144.144C121.741 144.816 121.301 145.384 120.725 145.848C120.165 146.296 119.501 146.64 118.733 146.88C117.981 147.12 117.173 147.24 116.309 147.24ZM127.136 152.616C126.848 152.616 126.616 152.528 126.44 152.352C126.28 152.192 126.2 151.968 126.2 151.68V140.352C126.216 139.104 126.512 137.984 127.088 136.992C127.68 135.984 128.472 135.192 129.464 134.616C130.472 134.04 131.6 133.752 132.848 133.752C134.128 133.752 135.272 134.048 136.28 134.64C137.288 135.216 138.08 136.008 138.656 137.016C139.248 138.024 139.544 139.168 139.544 140.448C139.544 141.712 139.256 142.848 138.68 143.856C138.12 144.864 137.352 145.664 136.376 146.256C135.4 146.832 134.296 147.12 133.064 147.12C131.992 147.12 131.016 146.896 130.136 146.448C129.272 145.984 128.576 145.376 128.048 144.624V151.68C128.048 151.968 127.96 152.192 127.784 152.352C127.624 152.528 127.408 152.616 127.136 152.616ZM132.848 145.44C133.776 145.44 134.608 145.224 135.344 144.792C136.08 144.36 136.656 143.768 137.072 143.016C137.504 142.248 137.72 141.392 137.72 140.448C137.72 139.488 137.504 138.632 137.072 137.88C136.656 137.128 136.08 136.536 135.344 136.104C134.608 135.656 133.776 135.432 132.848 135.432C131.936 135.432 131.112 135.656 130.376 136.104C129.64 136.536 129.064 137.128 128.648 137.88C128.232 138.632 128.024 139.488 128.024 140.448C128.024 141.392 128.232 142.248 128.648 143.016C129.064 143.768 129.64 144.36 130.376 144.792C131.112 145.224 131.936 145.44 132.848 145.44ZM149.121 147.12C147.825 147.12 146.673 146.84 145.665 146.28C144.673 145.704 143.889 144.912 143.313 143.904C142.753 142.896 142.473 141.744 142.473 140.448C142.473 139.136 142.737 137.984 143.265 136.992C143.809 135.984 144.553 135.192 145.497 134.616C146.441 134.04 147.529 133.752 148.761 133.752C149.977 133.752 151.033 134.032 151.929 134.592C152.841 135.136 153.545 135.896 154.041 136.872C154.537 137.848 154.785 138.96 154.785 140.208C154.785 140.464 154.705 140.672 154.545 140.832C154.385 140.976 154.177 141.048 153.921 141.048H143.721V139.512H154.113L153.081 140.256C153.097 139.328 152.929 138.496 152.577 137.76C152.225 137.024 151.721 136.448 151.065 136.032C150.425 135.616 149.657 135.408 148.761 135.408C147.849 135.408 147.049 135.624 146.361 136.056C145.673 136.488 145.137 137.088 144.753 137.856C144.385 138.608 144.201 139.472 144.201 140.448C144.201 141.424 144.409 142.288 144.825 143.04C145.257 143.792 145.841 144.384 146.577 144.816C147.313 145.248 148.161 145.464 149.121 145.464C149.697 145.464 150.273 145.368 150.849 145.176C151.441 144.968 151.913 144.712 152.265 144.408C152.441 144.264 152.641 144.192 152.865 144.192C153.089 144.176 153.281 144.232 153.441 144.36C153.649 144.552 153.753 144.76 153.753 144.984C153.769 145.208 153.681 145.4 153.489 145.56C152.961 146.008 152.289 146.384 151.473 146.688C150.657 146.976 149.873 147.12 149.121 147.12ZM163.394 147.12C162.098 147.12 160.946 146.84 159.938 146.28C158.946 145.704 158.162 144.912 157.586 143.904C157.026 142.896 156.746 141.744 156.746 140.448C156.746 139.136 157.01 137.984 157.538 136.992C158.082 135.984 158.826 135.192 159.77 134.616C160.714 134.04 161.802 133.752 163.034 133.752C164.25 133.752 165.306 134.032 166.202 134.592C167.114 135.136 167.818 135.896 168.314 136.872C168.81 137.848 169.058 138.96 169.058 140.208C169.058 140.464 168.978 140.672 168.818 140.832C168.658 140.976 168.45 141.048 168.194 141.048H157.994V139.512H168.386L167.354 140.256C167.37 139.328 167.202 138.496 166.85 137.76C166.498 137.024 165.994 136.448 165.338 136.032C164.698 135.616 163.93 135.408 163.034 135.408C162.122 135.408 161.322 135.624 160.634 136.056C159.946 136.488 159.41 137.088 159.026 137.856C158.658 138.608 158.474 139.472 158.474 140.448C158.474 141.424 158.682 142.288 159.098 143.04C159.53 143.792 160.114 144.384 160.85 144.816C161.586 145.248 162.434 145.464 163.394 145.464C163.97 145.464 164.546 145.368 165.122 145.176C165.714 144.968 166.186 144.712 166.538 144.408C166.714 144.264 166.914 144.192 167.138 144.192C167.362 144.176 167.554 144.232 167.714 144.36C167.922 144.552 168.026 144.76 168.026 144.984C168.042 145.208 167.954 145.4 167.762 145.56C167.234 146.008 166.562 146.384 165.746 146.688C164.93 146.976 164.146 147.12 163.394 147.12ZM177.692 147.12C176.428 147.12 175.292 146.832 174.284 146.256C173.276 145.664 172.476 144.864 171.884 143.856C171.308 142.848 171.02 141.704 171.02 140.424C171.02 139.16 171.3 138.024 171.86 137.016C172.436 136.008 173.212 135.216 174.188 134.64C175.164 134.048 176.268 133.752 177.5 133.752C178.572 133.752 179.54 133.984 180.404 134.448C181.268 134.896 181.964 135.496 182.492 136.248V129.192C182.492 128.904 182.58 128.68 182.756 128.52C182.932 128.344 183.156 128.256 183.428 128.256C183.7 128.256 183.924 128.344 184.1 128.52C184.276 128.68 184.364 128.904 184.364 129.192V140.52C184.332 141.768 184.02 142.896 183.428 143.904C182.852 144.896 182.06 145.68 181.052 146.256C180.06 146.832 178.94 147.12 177.692 147.12ZM177.692 145.44C178.62 145.44 179.444 145.224 180.164 144.792C180.9 144.344 181.476 143.744 181.892 142.992C182.324 142.24 182.54 141.384 182.54 140.424C182.54 139.48 182.324 138.632 181.892 137.88C181.476 137.112 180.9 136.512 180.164 136.08C179.444 135.648 178.62 135.432 177.692 135.432C176.78 135.432 175.956 135.648 175.22 136.08C174.484 136.512 173.9 137.112 173.468 137.88C173.036 138.632 172.82 139.48 172.82 140.424C172.82 141.384 173.036 142.24 173.468 142.992C173.9 143.744 174.484 144.344 175.22 144.792C175.956 145.224 176.78 145.44 177.692 145.44ZM7.67754 211.12C6.55754 211.12 5.54954 210.88 4.65354 210.4C3.77354 209.904 3.07754 209.232 2.56554 208.384C2.05354 207.536 1.79754 206.576 1.79754 205.504C1.79754 205.232 1.87754 205 2.03754 204.808C2.19754 204.616 2.41354 204.52 2.68554 204.52C2.95754 204.52 3.17354 204.616 3.33354 204.808C3.49354 205 3.57354 205.232 3.57354 205.504C3.57354 206.24 3.74954 206.904 4.10154 207.496C4.45354 208.072 4.93354 208.536 5.54154 208.888C6.16554 209.224 6.85354 209.392 7.60554 209.392C8.85354 209.392 9.82954 209.048 10.5335 208.36C11.2375 207.656 11.5895 206.752 11.5895 205.648C11.5895 204.864 11.4215 204.184 11.0855 203.608C10.7495 203.016 10.2935 202.56 9.71754 202.24C9.14154 201.904 8.49354 201.736 7.77354 201.736C7.51754 201.736 7.30154 201.648 7.12554 201.472C6.94954 201.296 6.86154 201.072 6.86154 200.8C6.86154 200.544 6.94954 200.328 7.12554 200.152C7.30154 199.976 7.51754 199.888 7.77354 199.888C8.33354 199.888 8.84554 199.752 9.30954 199.48C9.78954 199.192 10.1735 198.816 10.4615 198.352C10.7495 197.888 10.8935 197.376 10.8935 196.816C10.8935 195.968 10.6055 195.264 10.0295 194.704C9.45354 194.128 8.68554 193.84 7.72554 193.84C7.05354 193.84 6.45354 193.976 5.92554 194.248C5.39754 194.504 4.98154 194.856 4.67754 195.304C4.38954 195.736 4.24554 196.232 4.24554 196.792C4.24554 197.064 4.15754 197.296 3.98154 197.488C3.82154 197.664 3.61354 197.752 3.35754 197.752C3.08554 197.752 2.86954 197.664 2.70954 197.488C2.54954 197.296 2.46954 197.072 2.46954 196.816C2.46954 195.936 2.69354 195.144 3.14154 194.44C3.60554 193.72 4.22954 193.16 5.01354 192.76C5.79754 192.344 6.70154 192.136 7.72554 192.136C8.65354 192.136 9.48554 192.344 10.2215 192.76C10.9735 193.16 11.5655 193.72 11.9975 194.44C12.4455 195.144 12.6695 195.936 12.6695 196.816C12.6695 197.36 12.5335 197.888 12.2615 198.4C12.0055 198.912 11.6615 199.376 11.2295 199.792C10.7975 200.192 10.3255 200.504 9.81354 200.728C10.6295 200.968 11.3095 201.336 11.8535 201.832C12.3975 202.328 12.7975 202.912 13.0535 203.584C13.3095 204.24 13.4375 204.928 13.4375 205.648C13.4375 206.704 13.1815 207.648 12.6695 208.48C12.1735 209.296 11.4855 209.944 10.6055 210.424C9.72554 210.888 8.74954 211.12 7.67754 211.12ZM21.3566 211C20.1726 211 19.1566 210.624 18.3086 209.872C17.4606 209.12 16.8126 208.048 16.3646 206.656C15.9326 205.248 15.7166 203.56 15.7166 201.592C15.7166 199.656 15.9326 197.984 16.3646 196.576C16.8126 195.168 17.4606 194.088 18.3086 193.336C19.1566 192.584 20.1726 192.208 21.3566 192.208C22.5726 192.208 23.5966 192.592 24.4286 193.36C25.2766 194.112 25.9166 195.192 26.3486 196.6C26.7966 198.008 27.0206 199.672 27.0206 201.592C27.0206 203.544 26.7966 205.224 26.3486 206.632C25.9166 208.024 25.2766 209.104 24.4286 209.872C23.5966 210.624 22.5726 211 21.3566 211ZM21.3566 209.128C22.2206 209.128 22.9326 208.808 23.4926 208.168C24.0526 207.512 24.4686 206.616 24.7406 205.48C25.0126 204.344 25.1486 203.048 25.1486 201.592C25.1486 200.152 25.0046 198.872 24.7166 197.752C24.4446 196.616 24.0286 195.72 23.4686 195.064C22.9086 194.408 22.2046 194.08 21.3566 194.08C20.5086 194.08 19.8046 194.408 19.2446 195.064C18.7006 195.704 18.2846 196.592 17.9966 197.728C17.7246 198.864 17.5886 200.152 17.5886 201.592C17.5886 203.064 17.7246 204.368 17.9966 205.504C18.2846 206.624 18.7006 207.512 19.2446 208.168C19.8046 208.808 20.5086 209.128 21.3566 209.128ZM35.0675 211C33.8835 211 32.8675 210.624 32.0195 209.872C31.1715 209.12 30.5235 208.048 30.0755 206.656C29.6435 205.248 29.4275 203.56 29.4275 201.592C29.4275 199.656 29.6435 197.984 30.0755 196.576C30.5235 195.168 31.1715 194.088 32.0195 193.336C32.8675 192.584 33.8835 192.208 35.0675 192.208C36.2835 192.208 37.3075 192.592 38.1395 193.36C38.9875 194.112 39.6275 195.192 40.0595 196.6C40.5075 198.008 40.7315 199.672 40.7315 201.592C40.7315 203.544 40.5075 205.224 40.0595 206.632C39.6275 208.024 38.9875 209.104 38.1395 209.872C37.3075 210.624 36.2835 211 35.0675 211ZM35.0675 209.128C35.9315 209.128 36.6435 208.808 37.2035 208.168C37.7635 207.512 38.1795 206.616 38.4515 205.48C38.7235 204.344 38.8595 203.048 38.8595 201.592C38.8595 200.152 38.7155 198.872 38.4275 197.752C38.1555 196.616 37.7395 195.72 37.1795 195.064C36.6195 194.408 35.9155 194.08 35.0675 194.08C34.2195 194.08 33.5155 194.408 32.9555 195.064C32.4115 195.704 31.9955 196.592 31.7075 197.728C31.4355 198.864 31.2995 200.152 31.2995 201.592C31.2995 203.064 31.4355 204.368 31.7075 205.504C31.9955 206.624 32.4115 207.512 32.9555 208.168C33.5155 208.808 34.2195 209.128 35.0675 209.128ZM48.7785 211C47.5945 211 46.5785 210.624 45.7305 209.872C44.8825 209.12 44.2345 208.048 43.7865 206.656C43.3545 205.248 43.1385 203.56 43.1385 201.592C43.1385 199.656 43.3545 197.984 43.7865 196.576C44.2345 195.168 44.8825 194.088 45.7305 193.336C46.5785 192.584 47.5945 192.208 48.7785 192.208C49.9945 192.208 51.0185 192.592 51.8505 193.36C52.6985 194.112 53.3385 195.192 53.7705 196.6C54.2185 198.008 54.4425 199.672 54.4425 201.592C54.4425 203.544 54.2185 205.224 53.7705 206.632C53.3385 208.024 52.6985 209.104 51.8505 209.872C51.0185 210.624 49.9945 211 48.7785 211ZM48.7785 209.128C49.6425 209.128 50.3545 208.808 50.9145 208.168C51.4745 207.512 51.8905 206.616 52.1625 205.48C52.4345 204.344 52.5705 203.048 52.5705 201.592C52.5705 200.152 52.4265 198.872 52.1385 197.752C51.8665 196.616 51.4505 195.72 50.8905 195.064C50.3305 194.408 49.6265 194.08 48.7785 194.08C47.9305 194.08 47.2265 194.408 46.6665 195.064C46.1225 195.704 45.7065 196.592 45.4185 197.728C45.1465 198.864 45.0105 200.152 45.0105 201.592C45.0105 203.064 45.1465 204.368 45.4185 205.504C45.7065 206.624 46.1225 207.512 46.6665 208.168C47.2265 208.808 47.9305 209.128 48.7785 209.128ZM69.4247 211.12C68.4807 211.12 67.5447 210.96 66.6167 210.64C65.6887 210.32 64.9367 209.84 64.3607 209.2C64.1847 209.008 64.1127 208.792 64.1447 208.552C64.1767 208.312 64.2967 208.104 64.5047 207.928C64.7287 207.768 64.9607 207.704 65.2007 207.736C65.4407 207.768 65.6407 207.872 65.8007 208.048C66.1847 208.496 66.6887 208.84 67.3127 209.08C67.9527 209.32 68.6567 209.44 69.4247 209.44C70.6087 209.44 71.4647 209.24 71.9927 208.84C72.5207 208.424 72.7927 207.928 72.8087 207.352C72.8087 206.776 72.5367 206.304 71.9927 205.936C71.4487 205.552 70.5527 205.256 69.3047 205.048C67.6887 204.792 66.5047 204.344 65.7527 203.704C65.0007 203.064 64.6247 202.304 64.6247 201.424C64.6247 200.608 64.8407 199.928 65.2727 199.384C65.7047 198.84 66.2807 198.432 67.0007 198.16C67.7207 197.888 68.5127 197.752 69.3767 197.752C70.4487 197.752 71.3687 197.936 72.1367 198.304C72.9207 198.672 73.5527 199.168 74.0327 199.792C74.1927 200 74.2567 200.216 74.2247 200.44C74.1927 200.664 74.0647 200.848 73.8407 200.992C73.6487 201.104 73.4247 201.144 73.1687 201.112C72.9287 201.064 72.7207 200.944 72.5447 200.752C72.1447 200.288 71.6807 199.952 71.1527 199.744C70.6247 199.52 70.0167 199.408 69.3287 199.408C68.4487 199.408 67.7447 199.592 67.2167 199.96C66.6887 200.312 66.4247 200.76 66.4247 201.304C66.4247 201.672 66.5207 201.992 66.7127 202.264C66.9207 202.536 67.2647 202.776 67.7447 202.984C68.2407 203.192 68.9287 203.368 69.8087 203.512C71.0087 203.704 71.9527 203.992 72.6407 204.376C73.3447 204.744 73.8407 205.184 74.1287 205.696C74.4327 206.192 74.5847 206.736 74.5847 207.328C74.5847 208.08 74.3607 208.744 73.9127 209.32C73.4807 209.88 72.8727 210.32 72.0887 210.64C71.3207 210.96 70.4327 211.12 69.4247 211.12ZM83.7302 211.12C82.4342 211.12 81.2822 210.84 80.2742 210.28C79.2822 209.704 78.4982 208.912 77.9222 207.904C77.3622 206.896 77.0822 205.744 77.0822 204.448C77.0822 203.136 77.3462 201.984 77.8742 200.992C78.4182 199.984 79.1622 199.192 80.1062 198.616C81.0502 198.04 82.1382 197.752 83.3702 197.752C84.5862 197.752 85.6422 198.032 86.5382 198.592C87.4502 199.136 88.1542 199.896 88.6502 200.872C89.1462 201.848 89.3942 202.96 89.3942 204.208C89.3942 204.464 89.3142 204.672 89.1542 204.832C88.9942 204.976 88.7862 205.048 88.5302 205.048H78.3302V203.512H88.7222L87.6902 204.256C87.7062 203.328 87.5382 202.496 87.1862 201.76C86.8342 201.024 86.3302 200.448 85.6742 200.032C85.0342 199.616 84.2662 199.408 83.3702 199.408C82.4582 199.408 81.6582 199.624 80.9702 200.056C80.2822 200.488 79.7462 201.088 79.3622 201.856C78.9942 202.608 78.8102 203.472 78.8102 204.448C78.8102 205.424 79.0182 206.288 79.4342 207.04C79.8662 207.792 80.4502 208.384 81.1862 208.816C81.9222 209.248 82.7702 209.464 83.7302 209.464C84.3062 209.464 84.8822 209.368 85.4582 209.176C86.0502 208.968 86.5222 208.712 86.8742 208.408C87.0502 208.264 87.2502 208.192 87.4742 208.192C87.6982 208.176 87.8902 208.232 88.0502 208.36C88.2582 208.552 88.3622 208.76 88.3622 208.984C88.3782 209.208 88.2902 209.4 88.0982 209.56C87.5702 210.008 86.8982 210.384 86.0822 210.688C85.2662 210.976 84.4822 211.12 83.7302 211.12ZM97.1044 211.12C96.1604 211.12 95.2244 210.96 94.2964 210.64C93.3684 210.32 92.6164 209.84 92.0404 209.2C91.8644 209.008 91.7924 208.792 91.8244 208.552C91.8564 208.312 91.9764 208.104 92.1844 207.928C92.4084 207.768 92.6404 207.704 92.8804 207.736C93.1204 207.768 93.3204 207.872 93.4804 208.048C93.8644 208.496 94.3684 208.84 94.9924 209.08C95.6324 209.32 96.3364 209.44 97.1044 209.44C98.2884 209.44 99.1444 209.24 99.6724 208.84C100.2 208.424 100.472 207.928 100.488 207.352C100.488 206.776 100.216 206.304 99.6724 205.936C99.1284 205.552 98.2324 205.256 96.9844 205.048C95.3684 204.792 94.1844 204.344 93.4324 203.704C92.6804 203.064 92.3044 202.304 92.3044 201.424C92.3044 200.608 92.5204 199.928 92.9524 199.384C93.3844 198.84 93.9604 198.432 94.6804 198.16C95.4004 197.888 96.1924 197.752 97.0564 197.752C98.1284 197.752 99.0484 197.936 99.8164 198.304C100.6 198.672 101.232 199.168 101.712 199.792C101.872 200 101.936 200.216 101.904 200.44C101.872 200.664 101.744 200.848 101.52 200.992C101.328 201.104 101.104 201.144 100.848 201.112C100.608 201.064 100.4 200.944 100.224 200.752C99.8244 200.288 99.3604 199.952 98.8324 199.744C98.3044 199.52 97.6964 199.408 97.0084 199.408C96.1284 199.408 95.4244 199.592 94.8964 199.96C94.3684 200.312 94.1044 200.76 94.1044 201.304C94.1044 201.672 94.2004 201.992 94.3924 202.264C94.6004 202.536 94.9444 202.776 95.4244 202.984C95.9204 203.192 96.6084 203.368 97.4884 203.512C98.6884 203.704 99.6324 203.992 100.32 204.376C101.024 204.744 101.52 205.184 101.808 205.696C102.112 206.192 102.264 206.736 102.264 207.328C102.264 208.08 102.04 208.744 101.592 209.32C101.16 209.88 100.552 210.32 99.7684 210.64C99.0004 210.96 98.1124 211.12 97.1044 211.12ZM110.042 211.12C109.098 211.12 108.162 210.96 107.234 210.64C106.306 210.32 105.554 209.84 104.978 209.2C104.802 209.008 104.73 208.792 104.762 208.552C104.794 208.312 104.914 208.104 105.122 207.928C105.346 207.768 105.578 207.704 105.818 207.736C106.058 207.768 106.258 207.872 106.418 208.048C106.802 208.496 107.306 208.84 107.93 209.08C108.57 209.32 109.274 209.44 110.042 209.44C111.226 209.44 112.082 209.24 112.61 208.84C113.138 208.424 113.41 207.928 113.426 207.352C113.426 206.776 113.154 206.304 112.61 205.936C112.066 205.552 111.17 205.256 109.922 205.048C108.306 204.792 107.122 204.344 106.37 203.704C105.618 203.064 105.242 202.304 105.242 201.424C105.242 200.608 105.458 199.928 105.89 199.384C106.322 198.84 106.898 198.432 107.618 198.16C108.338 197.888 109.13 197.752 109.994 197.752C111.066 197.752 111.986 197.936 112.754 198.304C113.538 198.672 114.17 199.168 114.65 199.792C114.81 200 114.874 200.216 114.842 200.44C114.81 200.664 114.682 200.848 114.458 200.992C114.266 201.104 114.042 201.144 113.786 201.112C113.546 201.064 113.338 200.944 113.162 200.752C112.762 200.288 112.298 199.952 111.77 199.744C111.242 199.52 110.634 199.408 109.946 199.408C109.066 199.408 108.362 199.592 107.834 199.96C107.306 200.312 107.042 200.76 107.042 201.304C107.042 201.672 107.138 201.992 107.33 202.264C107.538 202.536 107.882 202.776 108.362 202.984C108.858 203.192 109.546 203.368 110.426 203.512C111.626 203.704 112.57 203.992 113.258 204.376C113.962 204.744 114.458 205.184 114.746 205.696C115.05 206.192 115.202 206.736 115.202 207.328C115.202 208.08 114.978 208.744 114.53 209.32C114.098 209.88 113.49 210.32 112.706 210.64C111.938 210.96 111.05 211.12 110.042 211.12ZM119.715 211C119.427 211 119.195 210.92 119.019 210.76C118.859 210.584 118.779 210.352 118.779 210.064V198.808C118.779 198.52 118.859 198.296 119.019 198.136C119.195 197.96 119.427 197.872 119.715 197.872C119.987 197.872 120.203 197.96 120.363 198.136C120.539 198.296 120.627 198.52 120.627 198.808V210.064C120.627 210.352 120.539 210.584 120.363 210.76C120.203 210.92 119.987 211 119.715 211ZM119.691 195.376C119.339 195.376 119.035 195.248 118.779 194.992C118.523 194.736 118.395 194.424 118.395 194.056C118.395 193.656 118.523 193.344 118.779 193.12C119.051 192.88 119.363 192.76 119.715 192.76C120.051 192.76 120.347 192.88 120.603 193.12C120.875 193.344 121.011 193.656 121.011 194.056C121.011 194.424 120.883 194.736 120.627 194.992C120.371 195.248 120.059 195.376 119.691 195.376ZM131.309 211.12C130.029 211.12 128.885 210.832 127.877 210.256C126.869 209.68 126.077 208.888 125.501 207.88C124.925 206.872 124.637 205.728 124.637 204.448C124.637 203.152 124.925 202 125.501 200.992C126.077 199.984 126.869 199.192 127.877 198.616C128.885 198.04 130.029 197.752 131.309 197.752C132.589 197.752 133.725 198.04 134.717 198.616C135.725 199.192 136.517 199.984 137.093 200.992C137.669 202 137.965 203.152 137.981 204.448C137.981 205.728 137.685 206.872 137.093 207.88C136.517 208.888 135.725 209.68 134.717 210.256C133.725 210.832 132.589 211.12 131.309 211.12ZM131.309 209.44C132.237 209.44 133.069 209.224 133.805 208.792C134.541 208.36 135.117 207.768 135.533 207.016C135.949 206.264 136.157 205.408 136.157 204.448C136.157 203.488 135.949 202.632 135.533 201.88C135.117 201.112 134.541 200.512 133.805 200.08C133.069 199.648 132.237 199.432 131.309 199.432C130.381 199.432 129.549 199.648 128.813 200.08C128.077 200.512 127.493 201.112 127.061 201.88C126.645 202.632 126.437 203.488 126.437 204.448C126.437 205.408 126.645 206.264 127.061 207.016C127.493 207.768 128.077 208.36 128.813 208.792C129.549 209.224 130.381 209.44 131.309 209.44ZM152.831 211C152.559 211 152.335 210.912 152.159 210.736C151.983 210.56 151.895 210.344 151.895 210.088V203.848C151.895 202.856 151.703 202.04 151.319 201.4C150.951 200.76 150.439 200.28 149.783 199.96C149.143 199.64 148.415 199.48 147.599 199.48C146.815 199.48 146.103 199.632 145.463 199.936C144.839 200.24 144.343 200.656 143.975 201.184C143.607 201.712 143.423 202.312 143.423 202.984H142.103C142.135 201.976 142.407 201.08 142.919 200.296C143.431 199.496 144.111 198.872 144.959 198.424C145.807 197.96 146.751 197.728 147.791 197.728C148.927 197.728 149.943 197.968 150.839 198.448C151.735 198.912 152.439 199.6 152.951 200.512C153.479 201.424 153.743 202.536 153.743 203.848V210.088C153.743 210.344 153.655 210.56 153.479 210.736C153.303 210.912 153.087 211 152.831 211ZM142.511 211C142.223 211 141.991 210.92 141.815 210.76C141.655 210.584 141.575 210.36 141.575 210.088V198.808C141.575 198.52 141.655 198.296 141.815 198.136C141.991 197.96 142.223 197.872 142.511 197.872C142.783 197.872 142.999 197.96 143.159 198.136C143.335 198.296 143.423 198.52 143.423 198.808V210.088C143.423 210.36 143.335 210.584 143.159 210.76C142.999 210.92 142.783 211 142.511 211ZM162.401 211.12C161.457 211.12 160.521 210.96 159.593 210.64C158.665 210.32 157.913 209.84 157.337 209.2C157.161 209.008 157.089 208.792 157.121 208.552C157.153 208.312 157.273 208.104 157.481 207.928C157.705 207.768 157.937 207.704 158.177 207.736C158.417 207.768 158.617 207.872 158.777 208.048C159.161 208.496 159.665 208.84 160.289 209.08C160.929 209.32 161.633 209.44 162.401 209.44C163.585 209.44 164.441 209.24 164.969 208.84C165.497 208.424 165.769 207.928 165.785 207.352C165.785 206.776 165.513 206.304 164.969 205.936C164.425 205.552 163.529 205.256 162.281 205.048C160.665 204.792 159.481 204.344 158.729 203.704C157.977 203.064 157.601 202.304 157.601 201.424C157.601 200.608 157.817 199.928 158.249 199.384C158.681 198.84 159.257 198.432 159.977 198.16C160.697 197.888 161.489 197.752 162.353 197.752C163.425 197.752 164.345 197.936 165.113 198.304C165.897 198.672 166.529 199.168 167.009 199.792C167.169 200 167.233 200.216 167.201 200.44C167.169 200.664 167.041 200.848 166.817 200.992C166.625 201.104 166.401 201.144 166.145 201.112C165.905 201.064 165.697 200.944 165.521 200.752C165.121 200.288 164.657 199.952 164.129 199.744C163.601 199.52 162.993 199.408 162.305 199.408C161.425 199.408 160.721 199.592 160.193 199.96C159.665 200.312 159.401 200.76 159.401 201.304C159.401 201.672 159.497 201.992 159.689 202.264C159.897 202.536 160.241 202.776 160.721 202.984C161.217 203.192 161.905 203.368 162.785 203.512C163.985 203.704 164.929 203.992 165.617 204.376C166.321 204.744 166.817 205.184 167.105 205.696C167.409 206.192 167.561 206.736 167.561 207.328C167.561 208.08 167.337 208.744 166.889 209.32C166.457 209.88 165.849 210.32 165.065 210.64C164.297 210.96 163.409 211.12 162.401 211.12Z" fill="#567796"/>
</svg>
